<?xml version="1.0" standalone="no"?>
<!DOCTYPE svg PUBLIC "-//W3C//DTD SVG 20010904//EN"
 "http://www.w3.org/TR/2001/REC-SVG-20010904/DTD/svg10.dtd">
<svg version="1.0" xmlns="http://www.w3.org/2000/svg"
 width="512.000000pt" height="512.000000pt" viewBox="0 0 512.000000 512.000000"
 preserveAspectRatio="xMidYMid meet">

<g transform="translate(0.000000,512.000000) scale(0.100000,-0.100000)"
fill="#000000" stroke="none">
<path d="M4361 4928 c-61 -17 -110 -61 -398 -350 -234 -235 -283 -289 -283
-312 0 -19 15 -43 50 -80 l49 -52 -69 -69 -70 -69 -93 92 c-56 54 -103 92
-114 92 -29 0 -73 -38 -73 -62 0 -11 -4 -18 -10 -16 -5 2 -92 82 -192 179
-101 96 -191 178 -201 182 -25 9 -74 -18 -83 -45 -4 -13 -89 -360 -188 -773
l-181 -750 -400 -5 c-220 -3 -407 -9 -416 -13 -36 -18 -39 -50 -39 -447 l0
-389 -390 -3 -389 -3 -23 -23 -23 -23 -3 -404 -3 -405 -389 0 -389 0 -20 -26
c-21 -26 -21 -37 -21 -474 0 -426 1 -449 19 -471 l19 -24 2522 0 2522 0 19 24
c18 22 19 45 19 471 0 437 0 448 -21 474 l-20 26 -394 0 -394 0 -3 406 -3 406
-28 24 -28 24 -385 0 -384 0 0 403 c0 398 0 404 -21 423 -18 16 -42 20 -151
24 l-130 5 493 119 c271 65 503 123 515 128 27 13 47 54 38 82 -3 11 -87 103
-187 203 -153 154 -178 183 -161 189 33 12 64 46 64 72 0 17 -25 51 -87 114
l-87 88 69 70 69 69 47 -44 c86 -80 69 -91 421 263 332 333 332 334 332 443
-2 162 -165 283 -323 237z m150 -167 c33 -33 39 -84 15 -129 -8 -15 -126 -138
-263 -274 l-248 -246 -80 74 -80 74 265 265 266 265 48 0 c39 0 53 -5 77 -29z
m-1244 -1019 c-25 -100 -42 -193 -40 -206 3 -14 14 -33 24 -42 19 -17 28 -16
217 29 l196 47 163 -162 c89 -89 161 -163 159 -165 -6 -6 -1320 -322 -1324
-318 -4 4 36 173 209 874 l111 454 164 -165 165 -164 -44 -182z m415 -13 c-20
-17 -270 -85 -279 -75 -5 4 51 249 64 283 4 10 39 -19 114 -93 60 -60 105
-111 101 -115z m-372 -1339 l0 -350 -755 0 -755 0 0 350 0 350 755 0 755 0 0
-350z m-830 -855 l0 -355 -752 2 -753 3 -3 340 c-1 187 0 346 3 352 3 10 162
13 755 13 l750 0 0 -355z m1660 0 l0 -355 -755 0 -755 0 0 355 0 355 755 0
755 0 0 -355z m-2490 -850 l0 -355 -755 0 -755 0 0 348 c0 192 3 352 6 355 4
4 344 7 755 7 l749 0 0 -355z m1660 0 l0 -355 -750 0 -750 0 0 355 0 355 750
0 750 0 0 -355z m1660 0 l0 -355 -750 0 -750 0 0 355 0 355 750 0 750 0 0
-355z"/>
</g>
</svg>
